<?xml version="1.0" standalone="no"?>
<!DOCTYPE svg PUBLIC "-//W3C//DTD SVG 20010904//EN"
 "http://www.w3.org/TR/2001/REC-SVG-20010904/DTD/svg10.dtd">
<svg version="1.0" xmlns="http://www.w3.org/2000/svg"
 width="80.000000pt" height="80.000000pt" viewBox="0 0 80.000000 80.000000"
 preserveAspectRatio="xMidYMid meet">

<g transform="translate(0.000000,80.000000) scale(0.100000,-0.100000)"
fill="#8ca7d4" stroke="none">
<path d="M274 758 c-5 -7 -20 -35 -34 -63 -25 -49 -26 -50 -80 -55 -79 -7 -80
-9 -63 -82 l15 -63 -54 -47 -53 -48 53 -47 54 -48 -15 -63 c-17 -73 -16 -75
63 -82 l55 -5 28 -55 c15 -30 31 -58 36 -63 5 -5 31 5 58 22 28 17 56 31 63
31 7 0 35 -14 63 -31 27 -17 53 -27 58 -22 5 5 21 33 36 63 l28 55 55 5 c79 7
80 9 63 82 l-15 63 54 48 53 47 -53 48 -54 47 15 63 c17 73 16 75 -63 82 l-55
5 -28 55 c-15 30 -31 58 -36 63 -5 5 -31 -5 -58 -22 -28 -17 -56 -31 -63 -31
-7 0 -35 14 -62 30 -55 34 -54 34 -64 18z m302 -255 c7 -26 5 -29 -146 -185
l-64 -68 -63 62 c-63 63 -73 84 -51 106 21 21 53 13 84 -19 l29 -30 80 85 c66
70 85 84 103 79 13 -3 25 -16 28 -30z"/>
</g>
</svg>
